<mxfile host="app.diagrams.net" modified="2023-06-15T19:13:56.538Z" agent="Mozilla/5.0 (Windows NT 10.0; Win64; x64) AppleWebKit/537.36 (KHTML, like Gecko) Chrome/112.0.0.0 YaBrowser/23.5.2.625 Yowser/2.5 Safari/537.36" etag="sVlurXfFZ6Iagz1YQ1Yc" version="21.3.3" type="device">
  <diagram name="Страница 1" id="dM2CMxzIpyVJISFtfQio">
    <mxGraphModel dx="1386" dy="829" grid="1" gridSize="10" guides="1" tooltips="1" connect="1" arrows="1" fold="1" page="1" pageScale="1" pageWidth="827" pageHeight="1169" math="0" shadow="0">
      <root>
        <mxCell id="0" />
        <mxCell id="1" parent="0" />
        <mxCell id="PRdbYC0I6c1sBE2gXQkG-2" value="" style="edgeStyle=orthogonalEdgeStyle;rounded=0;orthogonalLoop=1;jettySize=auto;html=1;" edge="1" parent="1" source="m1WL2kWnascPwhgt5tSd-2" target="PRdbYC0I6c1sBE2gXQkG-1">
          <mxGeometry relative="1" as="geometry" />
        </mxCell>
        <mxCell id="m1WL2kWnascPwhgt5tSd-2" value="SortingArray" style="rounded=1;whiteSpace=wrap;html=1;" parent="1" vertex="1">
          <mxGeometry x="354" y="30" width="120" height="60" as="geometry" />
        </mxCell>
        <mxCell id="PRdbYC0I6c1sBE2gXQkG-4" value="" style="edgeStyle=orthogonalEdgeStyle;rounded=0;orthogonalLoop=1;jettySize=auto;html=1;" edge="1" parent="1" source="PRdbYC0I6c1sBE2gXQkG-1" target="PRdbYC0I6c1sBE2gXQkG-3">
          <mxGeometry relative="1" as="geometry" />
        </mxCell>
        <mxCell id="PRdbYC0I6c1sBE2gXQkG-1" value="string[] array1&lt;br&gt;string[] array2&lt;br&gt;int count = 0" style="shape=parallelogram;perimeter=parallelogramPerimeter;whiteSpace=wrap;html=1;fixedSize=1;rounded=1;" vertex="1" parent="1">
          <mxGeometry x="354" y="120" width="120" height="60" as="geometry" />
        </mxCell>
        <mxCell id="PRdbYC0I6c1sBE2gXQkG-6" value="" style="edgeStyle=orthogonalEdgeStyle;rounded=0;orthogonalLoop=1;jettySize=auto;html=1;" edge="1" parent="1" source="PRdbYC0I6c1sBE2gXQkG-3" target="PRdbYC0I6c1sBE2gXQkG-5">
          <mxGeometry relative="1" as="geometry" />
        </mxCell>
        <mxCell id="PRdbYC0I6c1sBE2gXQkG-3" value="for (int i = 0; i &amp;lt; array.Length; i++)" style="rhombus;whiteSpace=wrap;html=1;rounded=1;" vertex="1" parent="1">
          <mxGeometry x="301" y="210" width="226" height="80" as="geometry" />
        </mxCell>
        <mxCell id="PRdbYC0I6c1sBE2gXQkG-7" value="No" style="edgeStyle=orthogonalEdgeStyle;rounded=0;orthogonalLoop=1;jettySize=auto;html=1;" edge="1" parent="1" source="PRdbYC0I6c1sBE2gXQkG-5">
          <mxGeometry relative="1" as="geometry">
            <mxPoint x="414" y="310" as="targetPoint" />
            <Array as="points">
              <mxPoint x="520" y="360" />
              <mxPoint x="520" y="310" />
            </Array>
          </mxGeometry>
        </mxCell>
        <mxCell id="PRdbYC0I6c1sBE2gXQkG-9" value="Yes" style="edgeStyle=orthogonalEdgeStyle;rounded=0;orthogonalLoop=1;jettySize=auto;html=1;" edge="1" parent="1" source="PRdbYC0I6c1sBE2gXQkG-5" target="PRdbYC0I6c1sBE2gXQkG-8">
          <mxGeometry relative="1" as="geometry" />
        </mxCell>
        <mxCell id="PRdbYC0I6c1sBE2gXQkG-5" value="if ( array[i].length &amp;lt;= 3)" style="rhombus;whiteSpace=wrap;html=1;rounded=1;" vertex="1" parent="1">
          <mxGeometry x="329.5" y="330" width="169" height="60" as="geometry" />
        </mxCell>
        <mxCell id="PRdbYC0I6c1sBE2gXQkG-10" style="edgeStyle=orthogonalEdgeStyle;rounded=0;orthogonalLoop=1;jettySize=auto;html=1;entryX=0.049;entryY=0.5;entryDx=0;entryDy=0;entryPerimeter=0;" edge="1" parent="1" source="PRdbYC0I6c1sBE2gXQkG-8" target="PRdbYC0I6c1sBE2gXQkG-3">
          <mxGeometry relative="1" as="geometry" />
        </mxCell>
        <mxCell id="PRdbYC0I6c1sBE2gXQkG-8" value="array2[count] = array1[i]&lt;br&gt;count++" style="whiteSpace=wrap;html=1;rounded=1;" vertex="1" parent="1">
          <mxGeometry x="100" y="230" width="155" height="40" as="geometry" />
        </mxCell>
      </root>
    </mxGraphModel>
  </diagram>
</mxfile>
